<svg version="1.1" preserveAspectRatio="none" xmlns="http://www.w3.org/2000/svg" width="500" height="500" viewBox="0 0 500 500"><rect width="100%" height="100%" fill="#FFFFFF" fill-opacity="1"/><svg viewBox="285.1673 104.079 394.3911 280.9658" width="333" height="237.2305343604356" x="83.5px" y="131.3847px" xmlns="http://www.w3.org/2000/svg" xmlns:xlink="http://www.w3.org/1999/xlink" preserveAspectRatio="none"><defs></defs><style>.companyName {fill:#0000FF;fill-opacity:1;}.icon1 {fill:#0000FF;fill-opacity:1;}.icon2 {fill:#A9FF94;fill-opacity:1;}.icon3 {fill:#000084;fill-opacity:1;}.icon3-str {stroke:#000084;stroke-opacity:1;}.text {fill:#0000FF;fill-opacity:1;}</style><g opacity="1" transform="rotate(0 375.2306 362.5448)">
<svg width="214.2645" height="22.5" x="375.2306" y="362.5448" version="1.1" preserveAspectRatio="none" viewBox="0.6 -30.28 362.2 38.040000000000006">
  <g transform="matrix(1 0 0 1 0 0)" class="text"><path id="id-6izo4zJp16" d="M14.36-4L15.56-1.24Q14.72-0.52 13.48-0.14Q12.24 0.24 10.92 0.24L10.92 0.24Q7.72 0.24 5.96-1.48Q4.20-3.20 4.20-6.40L4.20-6.40L4.20-18.04L0.60-18.04L0.60-21.20L4.20-21.20L4.20-25.84L8.04-25.84L8.04-21.20L14.12-21.20L14.12-18.04L8.04-18.04L8.04-6.56Q8.04-4.84 8.90-3.92Q9.76-3 11.36-3L11.36-3Q13.12-3 14.36-4L14.36-4Z M22.20 0L22.20-21.20L26.04-21.20L26.04 0L22.20 0ZM24.12-25.28Q23-25.28 22.26-26Q21.52-26.72 21.52-27.76L21.52-27.76Q21.52-28.80 22.26-29.54Q23-30.28 24.12-30.28L24.12-30.28Q25.24-30.28 25.98-29.58Q26.72-28.88 26.72-27.84L26.72-27.84Q26.72-26.76 25.98-26.02Q25.24-25.28 24.12-25.28L24.12-25.28Z M54.52-10.48Q54.52-10.04 54.44-9.32L54.44-9.32L37.24-9.32Q37.60-6.52 39.70-4.82Q41.80-3.12 44.92-3.12L44.92-3.12Q48.72-3.12 51.04-5.68L51.04-5.68L53.16-3.20Q51.72-1.52 49.58-0.64Q47.44 0.24 44.80 0.24L44.80 0.24Q41.44 0.24 38.84-1.14Q36.24-2.52 34.82-5Q33.40-7.48 33.40-10.60L33.40-10.60Q33.40-13.68 34.78-16.16Q36.16-18.64 38.58-20.02Q41-21.40 44.04-21.40L44.04-21.40Q47.08-21.40 49.46-20.02Q51.84-18.64 53.18-16.16Q54.52-13.68 54.52-10.48L54.52-10.48ZM44.04-18.16Q41.28-18.16 39.42-16.48Q37.56-14.80 37.24-12.08L37.24-12.08L50.84-12.08Q50.52-14.76 48.66-16.46Q46.80-18.16 44.04-18.16L44.04-18.16Z M73.16-21.40Q77.20-21.40 79.58-19.06Q81.96-16.72 81.96-12.20L81.96-12.20L81.96 0L78.12 0L78.12-11.76Q78.12-14.84 76.64-16.40Q75.16-17.96 72.40-17.96L72.40-17.96Q69.28-17.96 67.48-16.14Q65.68-14.32 65.68-10.92L65.68-10.92L65.68 0L61.84 0L61.84-21.20L65.52-21.20L65.52-18Q66.68-19.64 68.66-20.52Q70.64-21.40 73.16-21.40L73.16-21.40Z M107.36-29.68L111.20-29.68L111.20 0L107.52 0L107.52-3.36Q106.24-1.60 104.28-0.68Q102.32 0.24 99.96 0.24L99.96 0.24Q96.88 0.24 94.44-1.12Q92-2.48 90.62-4.94Q89.24-7.40 89.24-10.60L89.24-10.60Q89.24-13.80 90.62-16.24Q92-18.68 94.44-20.04Q96.88-21.40 99.96-21.40L99.96-21.40Q102.24-21.40 104.16-20.54Q106.08-19.68 107.36-18L107.36-18L107.36-29.68ZM100.28-3.12Q102.28-3.12 103.92-4.06Q105.56-5 106.48-6.70Q107.40-8.40 107.40-10.60L107.40-10.60Q107.40-12.80 106.48-14.50Q105.56-16.20 103.92-17.12Q102.28-18.04 100.28-18.04L100.28-18.04Q98.24-18.04 96.62-17.12Q95-16.20 94.06-14.50Q93.12-12.80 93.12-10.60L93.12-10.60Q93.12-8.40 94.06-6.70Q95-5 96.62-4.06Q98.24-3.12 100.28-3.12L100.28-3.12Z M128.20-21.40Q132.60-21.40 134.94-19.24Q137.28-17.08 137.28-12.80L137.28-12.80L137.28 0L133.64 0L133.64-2.80Q132.68-1.32 130.90-0.54Q129.12 0.24 126.68 0.24L126.68 0.24Q123.12 0.24 120.98-1.48Q118.84-3.20 118.84-6L118.84-6Q118.84-8.80 120.88-10.50Q122.92-12.20 127.36-12.20L127.36-12.20L133.44-12.20L133.44-12.96Q133.44-15.44 132-16.76Q130.56-18.08 127.76-18.08L127.76-18.08Q125.88-18.08 124.08-17.46Q122.28-16.84 121.04-15.80L121.04-15.80L119.44-18.68Q121.08-20 123.36-20.70Q125.64-21.40 128.20-21.40L128.20-21.40ZM127.32-2.72Q129.52-2.72 131.12-3.70Q132.72-4.68 133.44-6.48L133.44-6.48L133.44-9.44L127.52-9.44Q122.64-9.44 122.64-6.16L122.64-6.16Q122.64-4.56 123.88-3.64Q125.12-2.72 127.32-2.72L127.32-2.72Z M175.32-29.68L179.16-29.68L179.16 0L175.48 0L175.48-3.36Q174.20-1.60 172.24-0.68Q170.28 0.24 167.92 0.24L167.92 0.24Q164.84 0.24 162.40-1.12Q159.96-2.48 158.58-4.94Q157.20-7.40 157.20-10.60L157.20-10.60Q157.20-13.80 158.58-16.24Q159.96-18.68 162.40-20.04Q164.84-21.40 167.92-21.40L167.92-21.40Q170.20-21.40 172.12-20.54Q174.04-19.68 175.32-18L175.32-18L175.32-29.68ZM168.24-3.12Q170.24-3.12 171.88-4.06Q173.52-5 174.44-6.70Q175.36-8.40 175.36-10.60L175.36-10.60Q175.36-12.80 174.44-14.50Q173.52-16.20 171.88-17.12Q170.24-18.04 168.24-18.04L168.24-18.04Q166.20-18.04 164.58-17.12Q162.96-16.20 162.02-14.50Q161.08-12.80 161.08-10.60L161.08-10.60Q161.08-8.40 162.02-6.70Q162.96-5 164.58-4.06Q166.20-3.12 168.24-3.12L168.24-3.12Z M207.60-10.48Q207.60-10.04 207.52-9.32L207.52-9.32L190.32-9.32Q190.68-6.52 192.78-4.82Q194.88-3.12 198.00-3.12L198.00-3.12Q201.80-3.12 204.12-5.68L204.12-5.68L206.24-3.20Q204.80-1.52 202.66-0.64Q200.52 0.24 197.88 0.24L197.88 0.24Q194.52 0.24 191.92-1.14Q189.32-2.52 187.90-5Q186.48-7.48 186.48-10.60L186.48-10.60Q186.48-13.68 187.86-16.16Q189.24-18.64 191.66-20.02Q194.08-21.40 197.12-21.40L197.12-21.40Q200.16-21.40 202.54-20.02Q204.92-18.64 206.26-16.16Q207.60-13.68 207.60-10.48L207.60-10.48ZM197.12-18.16Q194.36-18.16 192.50-16.48Q190.64-14.80 190.32-12.08L190.32-12.08L203.92-12.08Q203.60-14.76 201.74-16.46Q199.88-18.16 197.12-18.16L197.12-18.16Z M226.16-21.40Q229.24-21.40 231.68-20.04Q234.12-18.68 235.50-16.24Q236.88-13.80 236.88-10.60L236.88-10.60Q236.88-7.40 235.50-4.94Q234.12-2.48 231.68-1.12Q229.24 0.24 226.16 0.24L226.16 0.24Q223.88 0.24 221.98-0.64Q220.08-1.52 218.76-3.20L218.76-3.20L218.76 7.76L214.92 7.76L214.92-21.20L218.60-21.20L218.60-17.84Q219.88-19.60 221.84-20.50Q223.80-21.40 226.16-21.40L226.16-21.40ZM225.84-3.12Q227.88-3.12 229.50-4.06Q231.12-5 232.06-6.70Q233.00-8.40 233.00-10.60L233.00-10.60Q233.00-12.80 232.06-14.50Q231.12-16.20 229.50-17.12Q227.88-18.04 225.84-18.04L225.84-18.04Q223.84-18.04 222.22-17.10Q220.60-16.16 219.66-14.48Q218.72-12.80 218.72-10.60L218.72-10.60Q218.72-8.40 219.64-6.70Q220.56-5 222.20-4.06Q223.84-3.12 225.84-3.12L225.84-3.12Z M253.28 0.24Q250.12 0.24 247.60-1.16Q245.08-2.56 243.66-5.02Q242.24-7.48 242.24-10.60L242.24-10.60Q242.24-13.72 243.66-16.18Q245.08-18.64 247.60-20.02Q250.12-21.40 253.28-21.40L253.28-21.40Q256.44-21.40 258.94-20.02Q261.44-18.64 262.86-16.18Q264.28-13.72 264.28-10.60L264.28-10.60Q264.28-7.48 262.86-5.02Q261.44-2.56 258.94-1.16Q256.44 0.24 253.28 0.24L253.28 0.24ZM253.28-3.12Q255.32-3.12 256.94-4.06Q258.56-5 259.48-6.70Q260.40-8.40 260.40-10.60L260.40-10.60Q260.40-12.80 259.48-14.50Q258.56-16.20 256.94-17.12Q255.32-18.04 253.28-18.04L253.28-18.04Q251.24-18.04 249.62-17.12Q248.00-16.20 247.06-14.50Q246.12-12.80 246.12-10.60L246.12-10.60Q246.12-8.40 247.06-6.70Q248.00-5 249.62-4.06Q251.24-3.12 253.28-3.12L253.28-3.12Z M275.28-17.64Q276.28-19.48 278.24-20.44Q280.20-21.40 283-21.40L283-21.40L283-17.68Q282.68-17.72 282.12-17.72L282.12-17.72Q279-17.72 277.22-15.86Q275.44-14 275.44-10.56L275.44-10.56L275.44 0L271.60 0L271.60-21.20L275.28-21.20L275.28-17.64Z M301.32-4L302.52-1.24Q301.68-0.52 300.44-0.14Q299.20 0.24 297.88 0.24L297.88 0.24Q294.68 0.24 292.92-1.48Q291.16-3.20 291.16-6.40L291.16-6.40L291.16-18.04L287.56-18.04L287.56-21.20L291.16-21.20L291.16-25.84L295-25.84L295-21.20L301.08-21.20L301.08-18.04L295-18.04L295-6.56Q295-4.84 295.86-3.92Q296.72-3 298.32-3L298.32-3Q300.08-3 301.32-4L301.32-4Z M309.16 0L309.16-21.20L313-21.20L313 0L309.16 0ZM311.08-25.28Q309.96-25.28 309.22-26Q308.48-26.72 308.48-27.76L308.48-27.76Q308.48-28.80 309.22-29.54Q309.96-30.28 311.08-30.28L311.08-30.28Q312.20-30.28 312.94-29.58Q313.68-28.88 313.68-27.84L313.68-27.84Q313.68-26.76 312.94-26.02Q312.20-25.28 311.08-25.28L311.08-25.28Z M337.32-21.20L341.08-21.20L331.80 0L327.88 0L318.60-21.20L322.60-21.20L329.88-4.20L337.32-21.20Z M353.72-21.40Q358.12-21.40 360.46-19.24Q362.80-17.08 362.80-12.80L362.80-12.80L362.80 0L359.16 0L359.16-2.80Q358.20-1.32 356.42-0.54Q354.64 0.24 352.20 0.24L352.20 0.24Q348.64 0.24 346.50-1.48Q344.36-3.20 344.36-6L344.36-6Q344.36-8.80 346.40-10.50Q348.44-12.20 352.88-12.20L352.88-12.20L358.96-12.20L358.96-12.96Q358.96-15.44 357.52-16.76Q356.08-18.08 353.28-18.08L353.28-18.08Q351.40-18.08 349.60-17.46Q347.80-16.84 346.56-15.80L346.56-15.80L344.96-18.68Q346.60-20 348.88-20.70Q351.16-21.40 353.72-21.40L353.72-21.40ZM352.84-2.72Q355.04-2.72 356.64-3.70Q358.24-4.68 358.96-6.48L358.96-6.48L358.96-9.44L353.04-9.44Q348.16-9.44 348.16-6.16L348.16-6.16Q348.16-4.56 349.40-3.64Q350.64-2.72 352.84-2.72L352.84-2.72Z"/></g>
</svg>
</g><g opacity="1" transform="rotate(0 285.1673 288.5448)">
<svg width="394.3911" height="50" x="285.1673" y="288.5448" version="1.1" preserveAspectRatio="none" viewBox="0.88 -29.68 295.32 37.44">
  <g transform="matrix(1 0 0 1 0 0)" class="companyName"><path id="id-D6z1nYkh11" d="M39.44-28L45.64-28L36.48 0L29.52 0L23.36-18.96L17 0L10.08 0L0.88-28L7.60-28L13.92-8.32L20.52-28L26.52-28L32.92-8.16L39.44-28Z M59.96-21.84Q64.96-21.84 67.64-19.46Q70.32-17.08 70.32-12.28L70.32-12.28L70.32 0L64.48 0L64.48-2.68Q62.72 0.32 57.92 0.32L57.92 0.32Q55.44 0.32 53.62-0.52Q51.80-1.36 50.84-2.84Q49.88-4.32 49.88-6.20L49.88-6.20Q49.88-9.20 52.14-10.92Q54.40-12.64 59.12-12.64L59.12-12.64L64.08-12.64Q64.08-14.68 62.84-15.78Q61.60-16.88 59.12-16.88L59.12-16.88Q57.40-16.88 55.74-16.34Q54.08-15.80 52.92-14.88L52.92-14.88L50.68-19.24Q52.44-20.48 54.90-21.16Q57.36-21.84 59.96-21.84L59.96-21.84ZM59.48-3.88Q61.08-3.88 62.32-4.62Q63.56-5.36 64.08-6.80L64.08-6.80L64.08-9L59.80-9Q55.96-9 55.96-6.48L55.96-6.48Q55.96-5.28 56.90-4.58Q57.84-3.88 59.48-3.88L59.48-3.88Z M80.04 0L80.04-29.68L86.28-29.68L86.28 0L80.04 0Z M109.92-5.44L111.60-1.04Q110.68-0.36 109.34-0.02Q108 0.32 106.52 0.32L106.52 0.32Q102.68 0.32 100.58-1.64Q98.48-3.60 98.48-7.40L98.48-7.40L98.48-16.24L95.16-16.24L95.16-21.04L98.48-21.04L98.48-26.28L104.72-26.28L104.72-21.04L110.08-21.04L110.08-16.24L104.72-16.24L104.72-7.48Q104.72-6.12 105.42-5.38Q106.12-4.64 107.40-4.64L107.40-4.64Q108.88-4.64 109.92-5.44L109.92-5.44Z M139.60-10.68Q139.60-10.56 139.48-9L139.48-9L123.20-9Q123.64-7 125.28-5.84Q126.92-4.68 129.36-4.68L129.36-4.68Q131.04-4.68 132.34-5.18Q133.64-5.68 134.76-6.76L134.76-6.76L138.08-3.16Q135.04 0.32 129.20 0.32L129.20 0.32Q125.56 0.32 122.76-1.10Q119.96-2.52 118.44-5.04Q116.92-7.56 116.92-10.76L116.92-10.76Q116.92-13.92 118.42-16.46Q119.92-19 122.54-20.42Q125.16-21.84 128.40-21.84L128.40-21.84Q131.56-21.84 134.12-20.48Q136.68-19.12 138.14-16.58Q139.60-14.04 139.60-10.68L139.60-10.68ZM128.44-17.12Q126.32-17.12 124.88-15.92Q123.44-14.72 123.12-12.64L123.12-12.64L133.72-12.64Q133.40-14.68 131.96-15.90Q130.52-17.12 128.44-17.12L128.44-17.12Z M153.80-18.68Q154.92-20.24 156.82-21.04Q158.72-21.84 161.20-21.84L161.20-21.84L161.20-16.08Q160.16-16.16 159.80-16.16L159.80-16.16Q157.12-16.16 155.60-14.66Q154.08-13.16 154.08-10.16L154.08-10.16L154.08 0L147.84 0L147.84-21.52L153.80-21.52L153.80-18.68Z M178.48 0.48Q175.16 0.48 172.06-0.42Q168.96-1.32 167.08-2.76L167.08-2.76L169.28-7.64Q171.08-6.32 173.56-5.52Q176.04-4.72 178.52-4.72L178.52-4.72Q181.28-4.72 182.60-5.54Q183.92-6.36 183.92-7.72L183.92-7.72Q183.92-8.72 183.14-9.38Q182.36-10.04 181.14-10.44Q179.92-10.84 177.84-11.32L177.84-11.32Q174.64-12.08 172.60-12.84Q170.56-13.60 169.10-15.28Q167.64-16.96 167.64-19.76L167.64-19.76Q167.64-22.20 168.96-24.18Q170.28-26.16 172.94-27.32Q175.60-28.48 179.44-28.48L179.44-28.48Q182.12-28.48 184.68-27.84Q187.24-27.20 189.16-26L189.16-26L187.16-21.08Q183.28-23.28 179.40-23.28L179.40-23.28Q176.68-23.28 175.38-22.40Q174.08-21.52 174.08-20.08L174.08-20.08Q174.08-18.64 175.58-17.94Q177.08-17.24 180.16-16.56L180.16-16.56Q183.36-15.80 185.40-15.04Q187.44-14.28 188.90-12.64Q190.36-11 190.36-8.20L190.36-8.20Q190.36-5.80 189.02-3.82Q187.68-1.84 185.00-0.68Q182.32 0.48 178.48 0.48L178.48 0.48Z M211.16-21.84Q214.16-21.84 216.62-20.46Q219.08-19.08 220.48-16.58Q221.88-14.08 221.88-10.76L221.88-10.76Q221.88-7.44 220.48-4.94Q219.08-2.44 216.62-1.06Q214.16 0.32 211.16 0.32L211.16 0.32Q207.04 0.32 204.68-2.28L204.68-2.28L204.68 7.76L198.44 7.76L198.44-21.52L204.40-21.52L204.40-19.04Q206.72-21.84 211.16-21.84L211.16-21.84ZM210.08-4.80Q212.48-4.80 214.02-6.42Q215.56-8.04 215.56-10.76L215.56-10.76Q215.56-13.48 214.02-15.10Q212.48-16.72 210.08-16.72L210.08-16.72Q207.68-16.72 206.14-15.10Q204.60-13.48 204.60-10.76L204.60-10.76Q204.60-8.04 206.14-6.42Q207.68-4.80 210.08-4.80L210.08-4.80Z M240.36 0.32Q236.96 0.32 234.26-1.10Q231.56-2.52 230.04-5.04Q228.52-7.56 228.52-10.76L228.52-10.76Q228.52-13.96 230.04-16.48Q231.56-19 234.26-20.42Q236.96-21.84 240.36-21.84L240.36-21.84Q243.76-21.84 246.44-20.42Q249.12-19 250.64-16.48Q252.16-13.96 252.16-10.76L252.16-10.76Q252.16-7.56 250.64-5.04Q249.12-2.52 246.44-1.10Q243.76 0.32 240.36 0.32L240.36 0.32ZM240.36-4.80Q242.76-4.80 244.30-6.42Q245.84-8.04 245.84-10.76L245.84-10.76Q245.84-13.48 244.30-15.10Q242.76-16.72 240.36-16.72L240.36-16.72Q237.96-16.72 236.40-15.10Q234.84-13.48 234.84-10.76L234.84-10.76Q234.84-8.04 236.40-6.42Q237.96-4.80 240.36-4.80L240.36-4.80Z M266.36-18.68Q267.48-20.24 269.38-21.04Q271.28-21.84 273.76-21.84L273.76-21.84L273.76-16.08Q272.72-16.16 272.36-16.16L272.36-16.16Q269.68-16.16 268.16-14.66Q266.64-13.16 266.64-10.16L266.64-10.16L266.64 0L260.40 0L260.40-21.52L266.36-21.52L266.36-18.68Z M294.52-5.44L296.20-1.04Q295.28-0.36 293.94-0.02Q292.60 0.32 291.12 0.32L291.12 0.32Q287.28 0.32 285.18-1.64Q283.08-3.60 283.08-7.40L283.08-7.40L283.08-16.24L279.76-16.24L279.76-21.04L283.08-21.04L283.08-26.28L289.32-26.28L289.32-21.04L294.68-21.04L294.68-16.24L289.32-16.24L289.32-7.48Q289.32-6.12 290.02-5.38Q290.72-4.64 292.00-4.64L292.00-4.64Q293.48-4.64 294.52-5.44L294.52-5.44Z"/></g>
</svg>
</g><g opacity="1" transform="rotate(0 403.4847 104.079)">
<svg width="157.7564" height="144.4658" x="403.4847" y="104.079" version="1.1" preserveAspectRatio="none" viewBox="5.000058650970459 7.790801048278809 89.99993896484375 82.41754913330078">
  <g transform="matrix(1 0 0 1 0 0)" class="icon1"><g><path d="M14.457,38.992c0,0,1.326,7.6,2.69,9.306c1.364,1.705,1.818,5.173,8.926,6.708c0,0,0.793,4.405,2.941,7.276   c2.125,2.838,1.018,5.392,1.074,6.983c0.037,1.06,0.574,3.347,1.705,4.614c1.449,1.623,2.273,6.992,2.273,6.992   s-1.421,2.102-0.738,3.922c0,0,1.137,1.479,4.264,2.387c3.127,0.911,4.995,3.488,7.73,2.957c2.047-0.397,0.342-1.99,0.342-1.99   s-2.957-1.762-3.98-3.865c-1.022-2.104-1.988-3.525-1.988-3.525s-1.82-2.785-1.877-4.888c-0.057-2.104-0.967-7.717-2.046-9.742   c0,0,0.284-3.105-0.398-4.926c-0.682-1.818-1.01-8.867-2.487-11.596c0,0,5.861-1.365,8.078-3.34C42.419,44.971,50,43.904,50,43.904   s1.762-0.227,3.922-2.217c1.329-1.229,6.222-2.321,7.282-2.542c0.684-0.143,1.535,0.057,2.331,0.455c0,0,1.25,1.08,2.729,0.322   c1.478-0.758,1.933-2.842,2.312-3.752c0.379-0.909,2.35-3.145,2.881-4.093c0.53-0.948,1.174-2.387,0.227-3.07   c0,0-0.416-0.341-1.705,0.758c-1.288,1.099-5.078,3.449-6.442,3.828c-1.364,0.378-3.752,1.667-4.358,2.046   c0,0-3.865,1.402-7.996,1.629c-4.131,0.228-12.697,1.744-12.697,1.744s-6.707,1.288-10.383,2.994c0,0-0.334-3.576-0.41-5.055   c0,0-0.564-2.762,0.826-5.04c0.741-1.213,0.568-2.957,0.568-2.957s1.402,1.224,2.52,0.577c0.229-0.149,0.324-0.349,0.285-0.843   c0,0,1.326,0.076,2.047-0.947c0.72-1.024-0.037-2.652-0.037-2.652s0.984,0.228,1.742-0.721c0,0,3.865,0.266,5.647-0.378   c1.78-0.645,7.995-1.099,7.995-1.099s2.161-0.228,3.525-0.228c1.365,0,3.297-0.19,3.79-0.834s5.457-1.819,5.78-2.282   c0.321-0.463-1.46-1.849-1.46-1.849s-2.368-0.615-5.078,0.379c-0.96,0.353-1.023,1.099-3.222,1.251   c-2.197,0.152-6.514-0.487-9.309-0.455c-3.236,0.038-7.252,0.569-7.252,0.569s-0.797-5.902-5.837-6.016   c-5.041-0.113-5.798,3.597-5.798,3.597c-0.001,0-0.089,2.125-1.697,3.004c-1.051,0.576-4.314,0.476-5.663,1.854   c-3.411,3.486-5.723,9.301-5.723,9.301s-2.19,8.168-2.911,9.987s-0.645,2.236-0.985,4.017C7.104,46.971,6.46,55.195,6.46,55.195   s-1.401,3.941-1.459,4.767c-0.057,0.824,2.482,3.021,5.742,1.184c0.68-0.385-0.049-2.221-0.049-2.221s0.732-0.029,0.793-0.515   s-1.578-2.949-1.578-2.949s0.037-2.881,0.53-4.094c0.493-1.213,1.667-6.632,1.706-7.731C12.146,43.636,14.078,39.521,14.457,38.992   z"></path><path d="M95,8.348c0,0-1.192,5.295-5.122,7.563c-3.932,2.269-9.111,0.654-9.111,0.654s1.191-5.294,5.122-7.563   C89.819,6.733,95,8.348,95,8.348z"></path></g></g>
</svg>
</g></svg></svg>